<svg xmlns="http://www.w3.org/2000/svg" version="1.1" xmlns:xlink="http://www.w3.org/1999/xlink" xmlns:svgjs="http://svgjs.dev/svgjs" width="1500" height="200" viewBox="0 0 1500 200"><g transform="matrix(1,0,0,1,-0.9090909090909918,-1.3675601052268433)"><svg viewBox="0 0 396 53" data-background-color="#ffffff" preserveAspectRatio="xMidYMid meet" height="200" width="1500" xmlns="http://www.w3.org/2000/svg" xmlns:xlink="http://www.w3.org/1999/xlink"><g id="tight-bounds" transform="matrix(1,0,0,1,0.2400000000000091,0.3624034278851127)"><svg viewBox="0 0 395.52 52.275193144229775" height="52.275193144229775" width="395.52"><g><svg viewBox="0 0 395.52 52.275193144229775" height="52.275193144229775" width="395.52"><g><svg viewBox="0 0 395.52 52.275193144229775" height="52.275193144229775" width="395.52"><g><svg viewBox="0 0 449.65621352034924 59.430282691846884" height="52.275193144229775" width="395.52"><g transform="matrix(1,0,0,1,54.13621352034928,0)"><svg viewBox="0 0 395.52 59.430282691846884" height="59.430282691846884" width="395.52"><g id="textblocktransform"><svg viewBox="0 0 395.52 59.430282691846884" height="59.430282691846884" width="395.52" id="textblock"><g><svg viewBox="0 0 395.52 32.105495301709496" height="32.105495301709496" width="395.52"><g transform="matrix(1,0,0,1,0,0)"><svg width="395.52" viewBox="4.8 -35.2 441.62 35.85" height="32.105495301709496" data-palette-color="#380000"><path d="M28.2-23.65Q28.2-17.85 24.6-15.08 21-12.3 14.75-12.3L14.75-12.3 10.55-12.3 10.55 0 4.8 0 4.8-34.5 14.35-34.5Q21-34.5 24.6-31.78 28.2-29.05 28.2-23.65L28.2-23.65ZM22.15-23.65Q22.15-30.15 14.75-30.15L14.75-30.15 10.55-30.15 10.55-16.7 14.8-16.7Q18.3-16.7 20.23-18.3 22.15-19.9 22.15-23.65L22.15-23.65ZM57.3-24.5Q57.3-20.9 55.15-18.5 53-16.1 49.45-15L49.45-15 59.25 0 52.5 0 43.8-14.2 40.05-14.2 40.05 0 34.25 0 34.25-34.5 43.85-34.5Q57.3-34.5 57.3-24.5L57.3-24.5ZM51.25-24.5Q51.25-27.5 49.52-28.85 47.8-30.2 44.2-30.2L44.2-30.2 40.05-30.2 40.05-18.45 44.35-18.45Q47.75-18.45 49.5-19.9 51.25-21.35 51.25-24.5L51.25-24.5ZM71.45-30.1L71.45-19.7 83.95-19.7 83.95-15.35 71.45-15.35 71.45-4.4 86.7-4.4 86.7 0 65.65 0 65.65-34.5 86.4-34.5 85.75-30.1 71.45-30.1ZM116.79-34.5L118.74 0 113.39 0 112.59-16.8Q112.44-20.1 112.44-23.15L112.44-23.15Q112.44-27.1 112.59-29.4L112.59-29.4 107.49-6.1 102.44-6.1 96.99-29.4Q97.19-26.85 97.19-21.55L97.19-21.55Q97.19-18.35 97.14-16.75L97.14-16.75 96.44 0 91.24 0 93.19-34.5 100.14-34.5 105.09-11.4 109.79-34.5 116.79-34.5ZM141.04-8.3L128.74-8.3 126.34 0 120.39 0 131.39-34.5 138.59-34.5 149.59 0 143.44 0 141.04-8.3ZM129.94-12.8L139.84-12.8 134.89-30 129.94-12.8ZM168.89 0L157.89-29.35Q158.69-21.15 158.69-15.65L158.69-15.65 158.69 0 153.54 0 153.54-34.5 161.09-34.5 172.09-5.15Q171.74-8.85 171.51-11.83 171.29-14.8 171.29-18.8L171.29-18.8 171.29-34.5 176.44-34.5 176.44 0 168.89 0ZM238.18-23.65Q238.18-17.85 234.58-15.08 230.98-12.3 224.73-12.3L224.73-12.3 220.53-12.3 220.53 0 214.78 0 214.78-34.5 224.33-34.5Q230.98-34.5 234.58-31.78 238.18-29.05 238.18-23.65L238.18-23.65ZM232.13-23.65Q232.13-30.15 224.73-30.15L224.73-30.15 220.53-30.15 220.53-16.7 224.78-16.7Q228.28-16.7 230.21-18.3 232.13-19.9 232.13-23.65L232.13-23.65ZM261.03-8.3L248.73-8.3 246.33 0 240.38 0 251.38-34.5 258.58-34.5 269.58 0 263.43 0 261.03-8.3ZM249.93-12.8L259.83-12.8 254.88-30 249.93-12.8ZM287.83-29.8L287.83 0 282.03 0 282.03-29.8 271.63-29.8 271.63-34.5 298.38-34.5 297.78-29.8 287.83-29.8ZM326.93-34.5L326.93-11.3Q326.93-7.8 325.5-5.1 324.08-2.4 321.38-0.88 318.68 0.65 314.93 0.65L314.93 0.65Q309.28 0.65 306.15-2.6 303.03-5.85 303.03-11.3L303.03-11.3 303.03-34.5 308.83-34.5 308.83-12.4Q308.83-8.1 310.3-6.03 311.78-3.95 314.93-3.95L314.93-3.95Q318.13-3.95 319.6-6.03 321.08-8.1 321.08-12.4L321.08-12.4 321.08-34.5 326.93-34.5ZM348.87 0L337.87-29.35Q338.67-21.15 338.67-15.65L338.67-15.65 338.67 0 333.52 0 333.52-34.5 341.07-34.5 352.07-5.15Q351.72-8.85 351.5-11.83 351.27-14.8 351.27-18.8L351.27-18.8 351.27-34.5 356.42-34.5 356.42 0 348.87 0ZM375.87 0.65Q369.17 0.65 365.5-3.93 361.82-8.5 361.82-17.3L361.82-17.3Q361.82-23 363.85-27.05 365.87-31.1 369.3-33.15 372.72-35.2 376.87-35.2L376.87-35.2Q380.22-35.2 382.6-34.23 384.97-33.25 387.12-31.2L387.12-31.2 383.87-27.85Q382.27-29.3 380.65-29.98 379.02-30.65 377.02-30.65L377.02-30.65Q373.02-30.65 370.45-27.43 367.87-24.2 367.87-17.3L367.87-17.3Q367.87-10.2 369.9-7.03 371.92-3.85 376.12-3.85L376.12-3.85Q379.32-3.85 381.82-5.3L381.82-5.3 381.82-14.8 375.97-14.8 375.37-19.25 387.47-19.25 387.47-2.5Q384.82-1 382.05-0.18 379.27 0.65 375.87 0.65L375.87 0.65ZM411.02-8.3L398.72-8.3 396.32 0 390.37 0 401.37-34.5 408.57-34.5 419.57 0 413.42 0 411.02-8.3ZM399.92-12.8L409.82-12.8 404.87-30 399.92-12.8ZM438.87 0L427.87-29.35Q428.67-21.15 428.67-15.65L428.67-15.65 428.67 0 423.52 0 423.52-34.5 431.07-34.5 442.07-5.15Q441.72-8.85 441.49-11.83 441.27-14.8 441.27-18.8L441.27-18.8 441.27-34.5 446.42-34.5 446.42 0 438.87 0Z" opacity="1" transform="matrix(1,0,0,1,0,0)" fill="#380000" class="wordmark-text-0" data-fill-palette-color="primary" id="text-0"></path></svg></g></svg></g><g transform="matrix(1,0,0,1,0,39.68483221055587)"><svg viewBox="0 0 232.209792 19.745450481291012" height="19.745450481291012" width="232.209792"><g transform="matrix(1,0,0,1,0,0)"><svg width="232.209792" viewBox="2.85 -36.35 563.85 47.95" height="19.745450481291012" data-palette-color="#c10000"><path d="M11.25 0L2.85 0 2.85-35 11.25-35Q19.7-35 23.8-30.33 27.9-25.65 27.9-17.5L27.9-17.5Q27.9-9.35 23.8-4.67 19.7 0 11.25 0L11.25 0ZM8.15-30.1L8.15-4.9 11.05-4.9Q17.15-4.9 19.85-8.33 22.55-11.75 22.55-17.5L22.55-17.5Q22.55-23.25 19.85-26.68 17.15-30.1 11.05-30.1L11.05-30.1 8.15-30.1ZM44.5-28.6L44.5-28.6Q42.75-28.6 41.57-29.73 40.4-30.85 40.4-32.5L40.4-32.5Q40.4-34.15 41.57-35.25 42.75-36.35 44.5-36.35L44.5-36.35Q46.3-36.35 47.47-35.25 48.65-34.15 48.65-32.5L48.65-32.5Q48.65-30.85 47.47-29.73 46.3-28.6 44.5-28.6ZM55.45 0L34.55 0 34.55-4.6 42.35-4.6 42.35-18.55Q42.35-20.2 40.75-20.2L40.75-20.2 35.25-20.2 35.25-24.8 41.7-24.8Q44.8-24.8 46.22-23.38 47.65-21.95 47.65-18.85L47.65-18.85 47.65-4.6 55.45-4.6 55.45 0ZM76.4-28.6L76.4-28.6Q74.65-28.6 73.47-29.73 72.3-30.85 72.3-32.5L72.3-32.5Q72.3-34.15 73.47-35.25 74.65-36.35 76.4-36.35L76.4-36.35Q78.2-36.35 79.37-35.25 80.55-34.15 80.55-32.5L80.55-32.5Q80.55-30.85 79.37-29.73 78.2-28.6 76.4-28.6ZM73.59 11L62.8 11 62.8 6.4 72.59 6.4Q74.25 6.4 74.25 4.75L74.25 4.75 74.25-18.55Q74.25-20.2 72.59-20.2L72.59-20.2 66.5-20.2 66.5-24.8 73.59-24.8Q76.7-24.8 78.12-23.38 79.55-21.95 79.55-18.85L79.55-18.85 79.55 5.05Q79.55 8.15 78.12 9.58 76.7 11 73.59 11L73.59 11ZM102.74 0.6L102.74 0.6Q99.79 0.6 97.79-0.43 95.79-1.45 94.79-3.18 93.79-4.9 93.79-6.95L93.79-6.95Q93.79-10.6 96.47-12.65 99.14-14.7 104.04-14.7L104.04-14.7 110.44-14.7 110.44-15.25Q110.44-20.85 105.24-20.85L105.24-20.85Q103.09-20.85 101.62-19.93 100.14-19 99.64-16.95L99.64-16.95 94.34-16.95Q94.74-20.85 97.72-23.13 100.69-25.4 105.24-25.4L105.24-25.4Q110.74-25.4 113.24-22.7 115.74-20 115.74-15.25L115.74-15.25 115.74 0 111.24 0 110.79-3.65 110.44-3.65Q109.34-1.9 107.69-0.65 106.04 0.6 102.74 0.6ZM103.74-3.85L103.74-3.85Q106.99-3.85 108.62-5.83 110.24-7.8 110.39-10.85L110.39-10.85 104.59-10.85Q101.74-10.85 100.57-9.93 99.39-9 99.39-7.35L99.39-7.35Q99.39-5.7 100.57-4.78 101.74-3.85 103.74-3.85ZM126.34 0L121.24 0 121.24-24.8 125.64-24.8 126.09-21.9 126.34-21.9Q126.99-23.45 128.34-24.43 129.69-25.4 131.54-25.4L131.54-25.4Q133.34-25.4 134.69-24.5 136.04-23.6 136.69-21.9L136.69-21.9 136.89-21.9Q137.54-23.4 138.94-24.4 140.34-25.4 142.39-25.4L142.39-25.4Q145.14-25.4 146.56-23.6 147.99-21.8 147.99-18.55L147.99-18.55 147.99 0 142.89 0 142.89-17.5Q142.89-19 142.27-19.88 141.64-20.75 140.29-20.75L140.29-20.75Q138.94-20.75 138.06-19.7 137.19-18.65 137.19-16.75L137.19-16.75 137.19 0 132.04 0 132.04-17.5Q132.04-19 131.44-19.88 130.84-20.75 129.49-20.75L129.49-20.75Q128.14-20.75 127.24-19.7 126.34-18.65 126.34-16.75L126.34-16.75 126.34 0ZM164.49-28.6L164.49-28.6Q162.74-28.6 161.56-29.73 160.39-30.85 160.39-32.5L160.39-32.5Q160.39-34.15 161.56-35.25 162.74-36.35 164.49-36.35L164.49-36.35Q166.29-36.35 167.46-35.25 168.64-34.15 168.64-32.5L168.64-32.5Q168.64-30.85 167.46-29.73 166.29-28.6 164.49-28.6ZM175.44 0L154.54 0 154.54-4.6 162.34-4.6 162.34-18.55Q162.34-20.2 160.74-20.2L160.74-20.2 155.24-20.2 155.24-24.8 161.69-24.8Q164.79-24.8 166.21-23.38 167.64-21.95 167.64-18.85L167.64-18.85 167.64-4.6 175.44-4.6 175.44 0ZM189.19 0L183.89 0 183.89-24.8 188.49-24.8 188.94-21.1 189.19-21.1Q190.19-22.9 192.29-24.15 194.39-25.4 197.14-25.4L197.14-25.4Q201.69-25.4 203.99-22.65 206.29-19.9 206.29-14.55L206.29-14.55 206.29 0 200.99 0 200.99-13.9Q200.99-17 199.69-18.7 198.39-20.4 195.59-20.4L195.59-20.4Q192.84-20.4 191.01-18.55 189.19-16.7 189.19-13.2L189.19-13.2 189.19 0ZM254.98 0.6L254.98 0.6Q251.43 0.6 248.63-1 245.83-2.6 244.23-5.53 242.63-8.45 242.63-12.4L242.63-12.4Q242.63-16.35 244.23-19.28 245.83-22.2 248.63-23.8 251.43-25.4 255.03-25.4L255.03-25.4Q258.63-25.4 261.41-23.8 264.18-22.2 265.75-19.28 267.33-16.35 267.33-12.4L267.33-12.4Q267.33-8.45 265.73-5.53 264.13-2.6 261.36-1 258.58 0.6 254.98 0.6ZM254.98-4.45L254.98-4.45Q256.88-4.45 258.48-5.3 260.08-6.15 261.06-7.93 262.03-9.7 262.03-12.4L262.03-12.4Q262.03-15.15 261.06-16.9 260.08-18.65 258.5-19.5 256.93-20.35 255.03-20.35L255.03-20.35Q253.13-20.35 251.53-19.5 249.93-18.65 248.96-16.9 247.98-15.15 247.98-12.4L247.98-12.4Q247.98-8.3 250.06-6.38 252.13-4.45 254.98-4.45ZM292.88 0L273.83 0 273.83-4.6 279.88-4.6 279.88-18.55Q279.88-20.2 278.28-20.2L278.28-20.2 274.33-20.2 274.33-24.8 280.28-24.8Q282.33-24.8 283.63-23.63 284.93-22.45 284.93-20.35L284.93-20.35 284.93-19.75 285.18-19.75Q285.73-22.55 287.55-23.98 289.38-25.4 292.88-25.4L292.88-25.4 296.73-25.4 296.73-19.8 291.33-19.8Q288.38-19.8 286.78-17.75 285.18-15.7 285.18-12.85L285.18-12.85 285.18-4.6 292.88-4.6 292.88 0ZM312.73 0.6L312.73 0.6Q309.78 0.6 307.78-0.43 305.78-1.45 304.78-3.18 303.78-4.9 303.78-6.95L303.78-6.95Q303.78-10.6 306.45-12.65 309.13-14.7 314.03-14.7L314.03-14.7 320.43-14.7 320.43-15.25Q320.43-20.85 315.23-20.85L315.23-20.85Q313.08-20.85 311.6-19.93 310.13-19 309.63-16.95L309.63-16.95 304.33-16.95Q304.73-20.85 307.7-23.13 310.68-25.4 315.23-25.4L315.23-25.4Q320.73-25.4 323.23-22.7 325.73-20 325.73-15.25L325.73-15.25 325.73 0 321.23 0 320.78-3.65 320.43-3.65Q319.33-1.9 317.68-0.65 316.03 0.6 312.73 0.6ZM313.73-3.85L313.73-3.85Q316.98-3.85 318.6-5.83 320.23-7.8 320.38-10.85L320.38-10.85 314.58-10.85Q311.73-10.85 310.55-9.93 309.38-9 309.38-7.35L309.38-7.35Q309.38-5.7 310.55-4.78 311.73-3.85 313.73-3.85ZM339.17 0L333.87 0 333.87-24.8 338.47-24.8 338.92-21.1 339.17-21.1Q340.17-22.9 342.27-24.15 344.37-25.4 347.12-25.4L347.12-25.4Q351.67-25.4 353.97-22.65 356.27-19.9 356.27-14.55L356.27-14.55 356.27 0 350.97 0 350.97-13.9Q350.97-17 349.67-18.7 348.37-20.4 345.57-20.4L345.57-20.4Q342.82-20.4 341-18.55 339.17-16.7 339.17-13.2L339.17-13.2 339.17 0ZM374.42-7.15L374.42-7.15Q372.12-7.15 370.17-7.9L370.17-7.9 368.92-6.4Q368.32-5.65 368.6-4.98 368.87-4.3 369.92-4.3L369.92-4.3 376.47-4.3Q380.82-4.3 383.5-2.48 386.17-0.65 386.17 3.1L386.17 3.1Q386.17 5.45 385 7.38 383.82 9.3 381.25 10.45 378.67 11.6 374.47 11.6L374.47 11.6Q369.17 11.6 365.95 9.63 362.72 7.65 362.72 3.7L362.72 3.7Q362.72 2.3 363.4 1.13 364.07-0.05 365.17-1L365.17-1Q363.82-2 363.55-3.83 363.27-5.65 364.62-7.35L364.62-7.35 366.82-10.15Q364.47-12.65 364.47-16.3L364.47-16.3Q364.47-18.75 365.65-20.83 366.82-22.9 369.05-24.15 371.27-25.4 374.42-25.4L374.42-25.4Q376.47-25.4 378.22-24.8L378.22-24.8 387.57-24.8 387.57-21.3 383.22-21.05 383.22-20.6Q384.27-18.65 384.27-16.3L384.27-16.3Q384.27-13.85 383.1-11.75 381.92-9.65 379.72-8.4 377.52-7.15 374.42-7.15ZM374.42-11.4L374.42-11.4Q376.62-11.4 378.05-12.7 379.47-14 379.47-16.3L379.47-16.3Q379.47-18.5 378.05-19.8 376.62-21.1 374.42-21.1L374.42-21.1Q372.17-21.1 370.75-19.8 369.32-18.5 369.32-16.3L369.32-16.3Q369.32-14 370.75-12.7 372.17-11.4 374.42-11.4ZM367.72 3.3L367.72 3.3Q367.72 5.3 369.65 6.25 371.57 7.2 374.47 7.2L374.47 7.2Q377.57 7.2 379.37 6.15 381.17 5.1 381.17 3.2L381.17 3.2Q381.17 1.6 379.87 0.68 378.57-0.25 375.47-0.25L375.47-0.25 369.62-0.25Q367.72 1.25 367.72 3.3ZM436.32 0.6L436.32 0.6Q433.57 0.6 431.69-0.53 429.82-1.65 428.82-3.65L428.82-3.65 428.52-3.65 428.07 0 423.52 0 423.52-36 428.82-36 428.82-21.6Q429.72-23.1 431.67-24.25 433.62-25.4 436.32-25.4L436.32-25.4Q439.42-25.4 441.87-23.93 444.32-22.45 445.74-19.55 447.17-16.65 447.17-12.4L447.17-12.4Q447.17-8.15 445.74-5.25 444.32-2.35 441.87-0.88 439.42 0.6 436.32 0.6ZM435.22-4.45L435.22-4.45Q438.07-4.45 439.94-6.43 441.82-8.4 441.82-12.35L441.82-12.35Q441.82-16.35 439.94-18.35 438.07-20.35 435.22-20.35L435.22-20.35Q432.37-20.35 430.49-18.38 428.62-16.4 428.62-12.4L428.62-12.4Q428.62-8.45 430.49-6.45 432.37-4.45 435.22-4.45ZM462.71 0.6L462.71 0.6Q459.76 0.6 457.76-0.43 455.76-1.45 454.76-3.18 453.76-4.9 453.76-6.95L453.76-6.95Q453.76-10.6 456.44-12.65 459.11-14.7 464.01-14.7L464.01-14.7 470.41-14.7 470.41-15.25Q470.41-20.85 465.21-20.85L465.21-20.85Q463.06-20.85 461.59-19.93 460.11-19 459.61-16.95L459.61-16.95 454.31-16.95Q454.71-20.85 457.69-23.13 460.66-25.4 465.21-25.4L465.21-25.4Q470.71-25.4 473.21-22.7 475.71-20 475.71-15.25L475.71-15.25 475.71 0 471.21 0 470.76-3.65 470.41-3.65Q469.31-1.9 467.66-0.65 466.01 0.6 462.71 0.6ZM463.71-3.85L463.71-3.85Q466.96-3.85 468.59-5.83 470.21-7.8 470.36-10.85L470.36-10.85 464.56-10.85Q461.71-10.85 460.54-9.93 459.36-9 459.36-7.35L459.36-7.35Q459.36-5.7 460.54-4.78 461.71-3.85 463.71-3.85ZM492.71 11L487.11 11 493.01-2.05 491.56-2.05 481.91-24.8 487.66-24.8 495.06-6.65 502.91-24.8 508.46-24.8 492.71 11ZM522.71 0.6L522.71 0.6Q519.76 0.6 517.76-0.43 515.76-1.45 514.76-3.18 513.76-4.9 513.76-6.95L513.76-6.95Q513.76-10.6 516.43-12.65 519.11-14.7 524.01-14.7L524.01-14.7 530.41-14.7 530.41-15.25Q530.41-20.85 525.21-20.85L525.21-20.85Q523.06-20.85 521.58-19.93 520.11-19 519.61-16.95L519.61-16.95 514.31-16.95Q514.71-20.85 517.68-23.13 520.66-25.4 525.21-25.4L525.21-25.4Q530.71-25.4 533.21-22.7 535.71-20 535.71-15.25L535.71-15.25 535.71 0 531.21 0 530.76-3.65 530.41-3.65Q529.31-1.9 527.66-0.65 526.01 0.6 522.71 0.6ZM523.71-3.85L523.71-3.85Q526.96-3.85 528.58-5.83 530.21-7.8 530.36-10.85L530.36-10.85 524.56-10.85Q521.71-10.85 520.53-9.93 519.36-9 519.36-7.35L519.36-7.35Q519.36-5.7 520.53-4.78 521.71-3.85 523.71-3.85ZM562.85 0L543.8 0 543.8-4.6 549.85-4.6 549.85-18.55Q549.85-20.2 548.25-20.2L548.25-20.2 544.3-20.2 544.3-24.8 550.25-24.8Q552.3-24.8 553.6-23.63 554.9-22.45 554.9-20.35L554.9-20.35 554.9-19.75 555.15-19.75Q555.7-22.55 557.53-23.98 559.35-25.4 562.85-25.4L562.85-25.4 566.7-25.4 566.7-19.8 561.3-19.8Q558.35-19.8 556.75-17.75 555.15-15.7 555.15-12.85L555.15-12.85 555.15-4.6 562.85-4.6 562.85 0Z" opacity="1" transform="matrix(1,0,0,1,0,0)" fill="#c10000" class="slogan-text-1" data-fill-palette-color="secondary" id="text-1"></path></svg></g></svg></g></svg></g></svg></g><g transform="matrix(1,0,0,1,0,0.5580503544764426)"><svg viewBox="0 0 46.55687661150291 58.314181982894" height="58.314181982894" width="46.55687661150291"><g><svg xmlns="http://www.w3.org/2000/svg" xmlns:xlink="http://www.w3.org/1999/xlink" version="1.1" x="0" y="0" viewBox="10.081 0 79.838 100" enable-background="new 0 0 100 100" xml:space="preserve" height="58.314181982894" width="46.55687661150291" class="icon-icon-0" data-fill-palette-color="accent" id="icon-0"><g fill="#003c3b" data-fill-palette-color="accent"><path fill="#003c3b" d="M88.507 8.361A39.9 39.9 0 0 1 76.612 10.164C73.903 10.164 71.257 9.894 68.702 9.381A39.8 39.8 0 0 1 51.05 0.905 39 39 0 0 1 50 0C49.656 0.307 49.305 0.61 48.95 0.905A39.8 39.8 0 0 1 31.297 9.381C28.743 9.895 26.097 10.164 23.388 10.164A39.9 39.9 0 0 1 10.081 7.891V50.559C10.081 74.833 27.188 95.113 50 100 72.812 95.113 89.919 74.833 89.919 50.56V7.892C89.453 8.058 88.983 8.213 88.507 8.361M20.394 71.207A45.35 45.35 0 0 1 15.405 50.56V14.783C18.028 15.252 20.698 15.488 23.388 15.488 26.406 15.488 29.42 15.188 32.348 14.598A45.3 45.3 0 0 0 50 6.833 45.4 45.4 0 0 0 65.477 14.102zM84.596 50.56C84.596 60.973 80.973 71.137 74.395 79.18 68.146 86.82 59.519 92.244 50 94.542 44.343 93.176 39.005 90.698 34.29 87.315L84.596 23.593z" data-fill-palette-color="accent"></path></g></svg></g></svg></g></svg></g></svg></g></svg></g><defs></defs></svg><rect width="395.52" height="52.275193144229775" fill="none" stroke="none" visibility="hidden"></rect></g></svg></g></svg>